<?xml version="1.0" standalone="no"?>
<!DOCTYPE svg PUBLIC "-//W3C//DTD SVG 20010904//EN"
 "http://www.w3.org/TR/2001/REC-SVG-20010904/DTD/svg10.dtd">
<svg version="1.0" xmlns="http://www.w3.org/2000/svg"
 width="512.000000pt" height="512.000000pt" viewBox="0 0 512.000000 512.000000"
 preserveAspectRatio="xMidYMid meet">

<g transform="translate(0.000000,512.000000) scale(0.100000,-0.100000)"
fill="#ececec" stroke="none">
<path d="M120 3515 c0 -14 12 -38 28 -54 15 -16 532 -304 1207 -672 924 -503
1188 -643 1215 -643 27 0 291 140 1215 643 675 368 1192 656 1207 672 32 33
38 79 11 79 -9 0 -550 -294 -1202 -652 -827 -455 -1195 -653 -1216 -653 -21 0
-342 170 -1045 556 -558 305 -1072 584 -1142 619 -70 35 -136 71 -146 81 -29
26 -78 49 -107 49 -20 0 -25 -5 -25 -25z"/>
<path d="M110 3185 c0 -14 12 -38 28 -54 15 -16 532 -304 1207 -672 924 -503
1188 -643 1215 -643 27 0 291 140 1215 643 675 368 1192 656 1207 672 32 33
38 79 11 79 -9 0 -550 -294 -1202 -652 -827 -455 -1195 -653 -1216 -653 -21 0
-342 170 -1045 556 -558 305 -1072 584 -1142 619 -70 35 -136 71 -146 81 -29
26 -78 49 -107 49 -20 0 -25 -5 -25 -25z"/>
</g>
</svg>
